<!-- Generated by IcoMoon.io -->
<svg version="1.1" xmlns="http://www.w3.org/2000/svg" width="32" height="32" viewBox="0 0 32 32">
<title>coffee2</title>
<path d="M27 4h-1.382l-1.724-3.447c-0.169-0.339-0.515-0.553-0.895-0.553h-14c-0.379 0-0.725 0.214-0.895 0.553l-1.723 3.447h-1.382c-0.552 0-1 0.448-1 1v6c0 0.553 0.448 1 1 1h1c0 0.034 0.002 0.069 0.005 0.104l2 19c0.053 0.509 0.483 0.895 0.995 0.895h14c0.512 0 0.941-0.387 0.994-0.895l2-19c0.004-0.035 0.006-0.070 0.006-0.104h1c0.552 0 1-0.447 1-1v-6c0-0.552-0.448-1-1-1zM9.618 2h12.764l1 2h-14.764l1-2zM9.9 30l-0.632-6h13.462l-0.631 6h-12.2zM14 20c0-1.105 0.896-2 2-2s2 0.895 2 2-0.895 2-2 2c-1.104 0-2-0.895-2-2zM23.573 16h-15.147l-0.421-4h15.989l-0.421 4zM26 10h-20v-4h18.994c0.002 0 0.004 0 0.006 0 0.001 0 0.003 0 0.004 0h0.995v4z"></path>
</svg>
