<!-- Generated by IcoMoon.io -->
<svg version="1.1" xmlns="http://www.w3.org/2000/svg" width="32" height="32" viewBox="0 0 32 32">
<title>cook2</title>
<path d="M24 4c-1.052 0-2.091 0.208-3.055 0.606-1.083-1.572-2.896-2.606-4.945-2.606s-3.862 1.033-4.944 2.606c-0.964-0.397-2.004-0.606-3.056-0.606-4.411 0-8 3.588-8 8 0 3.914 1.75 5.663 3.293 7.207 1.452 1.453 2.707 2.707 2.707 5.793v6c0 0.552 0.448 1 1 1h18c0.552 0 1-0.448 1-1v-6c0-3.086 1.255-4.34 2.707-5.793 1.544-1.544 3.293-3.293 3.293-7.207 0-4.411-3.589-8-8-8zM24 30h-16v-4h16v4zM27.293 17.793c-1.405 1.405-2.982 2.982-3.253 6.207h-16.081c-0.271-3.226-1.847-4.802-3.252-6.207-1.452-1.453-2.707-2.707-2.707-5.793 0-3.309 2.692-6 6-6 0.078 0 0.355 0.012 0.358 0.012 1.642 0.115 1.642 1.051 1.642 1.988v1c0 0.553 0.447 1 1 1s1-0.447 1-1v-1c0-2.205 1.794-4 4-4s4 1.795 4 4v1c0 0.553 0.448 1 1 1s1-0.447 1-1v-1c0-0.936 0-1.873 1.642-1.988 0.003-0 0.279-0.012 0.358-0.012 3.308 0 6 2.692 6 6 0 3.086-1.255 4.34-2.707 5.793z"></path>
</svg>
