<!-- Generated by IcoMoon.io -->
<svg version="1.1" xmlns="http://www.w3.org/2000/svg" width="32" height="32" viewBox="0 0 32 32">
<title>fish</title>
<path d="M31.855 14.479c-1.563-2.561-3.616-4.686-5.939-6.147-2.426-1.526-5.162-2.332-7.914-2.332-3.946 0-7.738 1.628-10.79 4.609-1.734-2.047-3.724-3.601-5.806-4.523-0.386-0.171-0.837-0.081-1.129 0.224s-0.359 0.761-0.171 1.138l3.777 7.553-3.777 7.553c-0.189 0.378-0.12 0.832 0.171 1.137 0.193 0.202 0.456 0.31 0.724 0.31 0.137 0 0.274-0.028 0.405-0.085 2.083-0.922 4.073-2.475 5.806-4.523 3.052 2.98 6.844 4.608 10.79 4.608 2.752 0 5.488-0.806 7.914-2.332 2.322-1.46 4.377-3.586 5.939-6.147 0.195-0.32 0.195-0.722 0-1.042zM26 16c-1.105 0-2-0.896-2-2s0.895-2 2-2 2 0.896 2 2-0.895 2-2 2z"></path>
</svg>
