<!-- Generated by IcoMoon.io -->
<svg version="1.1" xmlns="http://www.w3.org/2000/svg" width="32" height="32" viewBox="0 0 32 32">
<title>fork-knife</title>
<path d="M13 0c-0.553 0-1 0.448-1 1v9c0 0.593-0.101 0.986-0.301 1.169-0.188 0.172-0.554 0.264-0.942 0.361-0.227 0.057-0.489 0.122-0.758 0.22v-10.749c0-0.552-0.447-1-1-1s-1 0.448-1 1v10.749c-0.269-0.097-0.53-0.162-0.758-0.219-0.388-0.097-0.754-0.188-0.942-0.361-0.2-0.183-0.3-0.576-0.3-1.169v-9c0-0.552-0.448-1-1-1s-1 0.448-1 1v9c0 2.78 1.726 3.213 2.758 3.47 0.388 0.097 0.754 0.188 0.942 0.361 0.2 0.183 0.3 0.576 0.3 1.169v5.171c-1.165 0.412-2 1.523-2 2.828v6c0 1.657 1.343 3 3 3s3-1.343 3-3v-6c0-1.306-0.835-2.416-2-2.828v-5.171c0-0.593 0.101-0.986 0.301-1.169 0.188-0.172 0.554-0.264 0.942-0.361 1.031-0.258 2.758-0.69 2.758-3.47v-9c0-0.552-0.447-1-1-1zM26 20.172v-19.172c0-0.552-0.448-1-1-1-2.156 0-3.534 1.44-4.31 2.647-0.812 1.263-1.457 2.994-1.918 5.144-0.764 3.563-0.772 7.063-0.772 7.21 0 0.553 0.448 1 1 1h5v4.171c-1.165 0.412-2 1.523-2 2.828v6c0 1.657 1.343 3 3 3s3-1.343 3-3v-6c0-1.306-0.835-2.416-2-2.828zM20.733 8.184c0.517-2.404 1.49-5.2 3.267-5.976v11.792h-3.972c0.055-1.267 0.219-3.557 0.706-5.816z"></path>
</svg>
