<!-- Generated by IcoMoon.io -->
<svg version="1.1" xmlns="http://www.w3.org/2000/svg" width="32" height="32" viewBox="0 0 32 32">
<title>glass</title>
<path d="M24.305 0.527c-0.174-0.325-0.512-0.527-0.881-0.527h-14.85c-0.368 0-0.707 0.203-0.881 0.527-1.109 2.063-1.694 4.474-1.694 6.973 0 3.294 1.011 6.401 2.848 8.748 1.419 1.814 3.203 3.017 5.152 3.506v10.247h-3c-0.553 0-1 0.448-1 1s0.447 1 1 1h10c0.552 0 1-0.448 1-1s-0.448-1-1-1h-3v-10.246c1.949-0.488 3.732-1.692 5.151-3.506 1.837-2.347 2.849-5.454 2.849-8.748 0-2.498-0.586-4.91-1.695-6.973zM9.191 2h13.619c0.78 1.653 1.191 3.542 1.191 5.5 0 0.168-0.003 0.334-0.009 0.5h-15.982c-0.006-0.166-0.009-0.332-0.009-0.5 0-1.958 0.41-3.847 1.191-5.5z"></path>
</svg>
