<!-- Generated by IcoMoon.io -->
<svg version="1.1" xmlns="http://www.w3.org/2000/svg" width="32" height="32" viewBox="0 0 32 32">
<title>pizza</title>
<path d="M31.251 11.208l-29.692-11.134c-0.423-0.159-0.901-0.056-1.222 0.265s-0.423 0.798-0.265 1.222l11.134 29.692c0.169 0.452 0.601 0.749 1.081 0.749 0.015 0 0.031-0.001 0.046-0.001 5.157-0.206 10.012-2.335 13.671-5.994s5.788-8.514 5.994-13.671c0.020-0.498-0.282-0.952-0.748-1.127zM7.902 15.861c1.216-0.383 2.098-1.518 2.098-2.861 0-1.657-1.343-3-3-3-0.428 0-0.833 0.090-1.202 0.251l-2.671-7.124 24.713 9.268c-1.067 8.026-7.421 14.379-15.446 15.445l-4.492-11.979zM20 20c0 2.209-1.791 4-4 4s-4-1.791-4-4c0-2.209 1.791-4 4-4s4 1.791 4 4zM18 12c0 1.104-0.895 2-2 2s-2-0.896-2-2c0-1.104 0.896-2 2-2s2 0.896 2 2z"></path>
</svg>
