<!-- Generated by IcoMoon.io -->
<svg version="1.1" xmlns="http://www.w3.org/2000/svg" width="32" height="32" viewBox="0 0 32 32">
<title>plate</title>
<path d="M1.034 26h29.932c0.552 0 1-0.448 1-1v-2c0-0.022-0.001-0.044-0.002-0.066-0.267-4.047-2.045-7.809-5.008-10.595-2.487-2.338-5.611-3.797-8.956-4.215v-2.125h1c0.552 0 1-0.448 1-1s-0.448-1-1-1h-6c-0.553 0-1 0.448-1 1s0.447 1 1 1h1v2.125c-3.344 0.418-6.469 1.877-8.956 4.215-2.963 2.785-4.742 6.548-5.008 10.595-0.002 0.022-0.002 0.044-0.002 0.066v2c0 0.552 0.448 1 1 1zM31 28h-30c-0.552 0-1 0.448-1 1s0.448 1 1 1h30c0.552 0 1-0.448 1-1s-0.448-1-1-1z"></path>
</svg>
