<!-- Generated by IcoMoon.io -->
<svg version="1.1" xmlns="http://www.w3.org/2000/svg" width="32" height="32" viewBox="0 0 32 32">
<title>spoon-knife</title>
<path d="M7 0c-3.314 0-6 3.134-6 7 0 3.31 1.97 6.084 4.616 6.813l-0.994 16.192c-0.067 1.098 0.777 1.996 1.878 1.996h1c1.1 0 1.945-0.898 1.877-1.996l-0.993-16.192c2.646-0.729 4.616-3.502 4.616-6.813 0-3.866-2.686-7-6-7zM27.166 0l-1.666 10h-1.25l-0.834-10h-0.834l-0.834 10h-1.25l-1.666-10h-0.834v13c0 0.553 0.448 1 1 1h2.605l-0.982 16.004c-0.067 1.098 0.777 1.996 1.878 1.996h1c1.1 0 1.945-0.898 1.878-1.996l-0.982-16.004h2.605c0.552 0 1-0.447 1-1v-13h-0.834z"></path>
</svg>
