<svg style="position: absolute; width: 0; height: 0; overflow: hidden;" version="1.1" xmlns="http://www.w3.org/2000/svg">
<defs>
<symbol id="icon-instagram" viewBox="0 0 16 16">
<title>instagram</title>
<path d="M15 0h-14c-0.553 0-1 0.447-1 1v14c0 0.553 0.447 1 1 1h14c0.553 0 1-0.447 1-1v-14c0-0.553-0.447-1-1-1zM6 8c0 0 0.158-2 2-2s2 2 2 2 0.058 2-2 2-2-2-2-2zM14 14h-12v-7h2.142c-0.083 0.321-0.142 0.652-0.142 1 0 2.209 1.791 4 4 4s4-1.791 4-4c0-0.348-0.059-0.679-0.142-1h2.142v7zM14 5h-3v-3h3v3z"></path>
</symbol>
<symbol id="icon-google-plus3" viewBox="0 0 16 16">
<title>google-plus3</title>
<path d="M8 0c-4.419 0-8 3.581-8 8s3.581 8 8 8 8-3.581 8-8-3.581-8-8-8zM6 12c-2.212 0-4-1.787-4-4s1.788-4 4-4c1.081 0 1.984 0.394 2.681 1.047l-1.088 1.044c-0.297-0.284-0.816-0.616-1.594-0.616-1.366 0-2.481 1.131-2.481 2.525s1.116 2.525 2.481 2.525c1.584 0 2.178-1.137 2.269-1.725h-2.269v-1.372h3.778c0.034 0.2 0.063 0.4 0.063 0.663 0 2.287-1.531 3.909-3.841 3.909zM13 8v1h-1v-1h-1v-1h1v-1h1v1h1v1h-1z"></path>
</symbol>
<symbol id="icon-linkedin" viewBox="0 0 16 16">
<title>linkedin</title>
<path d="M14.5 0h-13c-0.825 0-1.5 0.675-1.5 1.5v13c0 0.825 0.675 1.5 1.5 1.5h13c0.825 0 1.5-0.675 1.5-1.5v-13c0-0.825-0.675-1.5-1.5-1.5zM6 13h-2v-7h2v7zM5 5c-0.553 0-1-0.447-1-1s0.447-1 1-1c0.553 0 1 0.447 1 1s-0.447 1-1 1zM13 13h-2v-4c0-0.553-0.447-1-1-1s-1 0.447-1 1v4h-2v-7h2v1.241c0.412-0.566 1.044-1.241 1.75-1.241 1.244 0 2.25 1.119 2.25 2.5v4.5z"></path>
</symbol>
<symbol id="icon-pinterest" viewBox="0 0 16 16">
<title>pinterest</title>
<path d="M8 1.069c-3.828 0-6.931 3.103-6.931 6.931 0 2.938 1.828 5.444 4.406 6.453-0.059-0.547-0.116-1.391 0.025-1.988 0.125-0.541 0.813-3.444 0.813-3.444s-0.206-0.416-0.206-1.028c0-0.963 0.559-1.684 1.253-1.684 0.591 0 0.878 0.444 0.878 0.975 0 0.594-0.378 1.484-0.575 2.306-0.166 0.691 0.344 1.253 1.025 1.253 1.231 0 2.178-1.3 2.178-3.175 0-1.659-1.194-2.819-2.894-2.819-1.972 0-3.128 1.478-3.128 3.009 0 0.597 0.228 1.234 0.516 1.581 0.056 0.069 0.066 0.128 0.047 0.2-0.053 0.219-0.169 0.691-0.194 0.787-0.031 0.128-0.1 0.153-0.231 0.094-0.866-0.403-1.406-1.669-1.406-2.684 0-2.188 1.587-4.194 4.578-4.194 2.403 0 4.272 1.712 4.272 4.003 0 2.388-1.506 4.313-3.597 4.313-0.703 0-1.362-0.366-1.588-0.797 0 0-0.347 1.322-0.431 1.647-0.156 0.603-0.578 1.356-0.862 1.816 0.65 0.2 1.337 0.309 2.053 0.309 3.828 0 6.931-3.103 6.931-6.931 0-3.831-3.103-6.934-6.931-6.934z"></path>
</symbol>
<symbol id="icon-youtube" viewBox="0 0 24 28">
<title>youtube</title>
<path d="M15.172 19.437v3.297c0 0.703-0.203 1.047-0.609 1.047-0.234 0-0.469-0.109-0.703-0.344v-4.703c0.234-0.234 0.469-0.344 0.703-0.344 0.406 0 0.609 0.359 0.609 1.047zM20.453 19.453v0.719h-1.406v-0.719c0-0.703 0.234-1.062 0.703-1.062s0.703 0.359 0.703 1.062zM5.359 16.047h1.672v-1.469h-4.875v1.469h1.641v8.891h1.563v-8.891zM9.859 24.938h1.391v-7.719h-1.391v5.906c-0.313 0.438-0.609 0.656-0.891 0.656-0.187 0-0.297-0.109-0.328-0.328-0.016-0.047-0.016-0.219-0.016-0.547v-5.688h-1.391v6.109c0 0.547 0.047 0.906 0.125 1.141 0.125 0.391 0.453 0.578 0.906 0.578 0.5 0 1.031-0.313 1.594-0.953v0.844zM16.562 22.625v-3.078c0-0.719-0.031-1.234-0.141-1.547-0.172-0.578-0.562-0.875-1.109-0.875-0.516 0-1 0.281-1.453 0.844v-3.391h-1.391v10.359h1.391v-0.75c0.469 0.578 0.953 0.859 1.453 0.859 0.547 0 0.938-0.297 1.109-0.859 0.109-0.328 0.141-0.844 0.141-1.563zM21.844 22.469v-0.203h-1.422c0 0.562-0.016 0.875-0.031 0.953-0.078 0.375-0.281 0.562-0.625 0.562-0.484 0-0.719-0.359-0.719-1.078v-1.359h2.797v-1.609c0-0.828-0.141-1.422-0.422-1.813-0.406-0.531-0.953-0.797-1.656-0.797-0.719 0-1.266 0.266-1.672 0.797-0.297 0.391-0.438 0.984-0.438 1.813v2.703c0 0.828 0.156 1.437 0.453 1.813 0.406 0.531 0.953 0.797 1.687 0.797s1.313-0.281 1.687-0.828c0.172-0.25 0.297-0.531 0.328-0.844 0.031-0.141 0.031-0.453 0.031-0.906zM12.344 8.203v-3.281c0-0.719-0.203-1.078-0.672-1.078-0.453 0-0.672 0.359-0.672 1.078v3.281c0 0.719 0.219 1.094 0.672 1.094 0.469 0 0.672-0.375 0.672-1.094zM23.578 19.938c0 1.797-0.016 3.719-0.406 5.469-0.297 1.234-1.297 2.141-2.5 2.266-2.875 0.328-5.781 0.328-8.672 0.328s-5.797 0-8.672-0.328c-1.203-0.125-2.219-1.031-2.5-2.266-0.406-1.75-0.406-3.672-0.406-5.469v0c0-1.813 0.016-3.719 0.406-5.469 0.297-1.234 1.297-2.141 2.516-2.281 2.859-0.313 5.766-0.313 8.656-0.313s5.797 0 8.672 0.313c1.203 0.141 2.219 1.047 2.5 2.281 0.406 1.75 0.406 3.656 0.406 5.469zM7.984 0h1.594l-1.891 6.234v4.234h-1.563v-4.234c-0.141-0.766-0.453-1.859-0.953-3.313-0.344-0.969-0.688-1.953-1.016-2.922h1.656l1.109 4.109zM13.766 5.203v2.734c0 0.828-0.141 1.453-0.438 1.844-0.391 0.531-0.938 0.797-1.656 0.797-0.703 0-1.25-0.266-1.641-0.797-0.297-0.406-0.438-1.016-0.438-1.844v-2.734c0-0.828 0.141-1.437 0.438-1.828 0.391-0.531 0.938-0.797 1.641-0.797 0.719 0 1.266 0.266 1.656 0.797 0.297 0.391 0.438 1 0.438 1.828zM19 2.672v7.797h-1.422v-0.859c-0.562 0.656-1.094 0.969-1.609 0.969-0.453 0-0.781-0.187-0.922-0.578-0.078-0.234-0.125-0.609-0.125-1.172v-6.156h1.422v5.734c0 0.328 0 0.516 0.016 0.547 0.031 0.219 0.141 0.344 0.328 0.344 0.281 0 0.578-0.219 0.891-0.672v-5.953h1.422z"></path>
</symbol>
<symbol id="icon-mail" viewBox="0 0 32 32">
<title>mail</title>
<path d="M2.518 8.058c0.781 0.419 11.597 6.23 12 6.446s0.925 0.318 1.45 0.318c0.525 0 1.046-0.102 1.45-0.318s11.219-6.027 12-6.446c0.782-0.421 1.522-2.058 0.086-2.058h-27.070c-1.435 0-0.696 1.637 0.085 2.058zM29.781 11.582c-0.888 0.462-11.819 6.158-12.363 6.443s-0.925 0.318-1.45 0.318-0.906-0.034-1.45-0.318-11.413-5.982-12.301-6.445c-0.624-0.326-0.618 0.056-0.618 0.35s0 11.669 0 11.669c0 0.672 0.906 1.6 1.6 1.6h25.6c0.694 0 1.6-0.928 1.6-1.6 0 0 0-11.373 0-11.667s0.006-0.677-0.619-0.35z"></path>
</symbol>
<symbol id="icon-phone2" viewBox="0 0 32 32">
<title>phone2</title>
<path d="M22 20c-2 2-2 4-4 4s-4-2-6-4-4-4-4-6 2-2 4-4-4-8-6-8-6 6-6 6c0 4 4.109 12.11 8 16s12 8 16 8c0 0 6-4 6-6s-6-8-8-6z"></path>
</symbol>
<symbol id="icon-restaurant" viewBox="0 0 32 32">
<title>restaurant</title>
<path d="M21.313 8.667c0-2.375 3-5.313 6.688-5.313v26.625h-3.313v-10.625h-3.375v-10.688zM14.688 12.667v-9.313h2.625v9.313c0 2.813-2.188 5.125-5 5.313v12h-3.313v-12c-2.813-0.188-5-2.5-5-5.313v-9.313h2.688v9.313h2.625v-9.313h2.688v9.313h2.688z"></path>
</symbol>
<symbol id="icon-food" viewBox="0 0 32 32">
<title>food</title>
<path d="M29.5 21h-2.691c-0.045-0.239-0.1-0.473-0.16-0.706l4.799-2.399c0.494-0.247 0.693-0.848 0.447-1.342-0.248-0.494-0.846-0.692-1.342-0.447l-4.578 2.288c-1.746-3.768-5.555-6.394-9.975-6.394-5.382 0-9.865 3.888-10.809 9h-2.691c-1.378 0-2.5 1.121-2.5 2.5 0 0.49 0.18 0.963 0.505 1.329l3.495 3.932v0.739c0 1.379 1.122 2.5 2.5 2.5h19c1.379 0 2.5-1.121 2.5-2.5v-0.739l3.494-3.932c0.326-0.366 0.506-0.839 0.506-1.329 0-1.379-1.121-2.5-2.5-2.5zM25.799 21h-0.562l0.498-0.25c0.019 0.084 0.046 0.165 0.064 0.25zM16 13c4.029 0 7.5 2.4 9.082 5.841l-0.891 0.445c-1.416-3.115-4.546-5.286-8.191-5.286-4.282 0-7.859 2.993-8.77 7h-1.028c0.929-4.559 4.969-8 9.798-8zM20.576 21c-0.773-1.763-2.531-3-4.576-3s-3.802 1.237-4.576 3h-1.074c0.826-2.326 3.043-4 5.65-4 2.465 0 4.588 1.496 5.508 3.627l-0.932 0.373zM16 20c-0.883 0-1.67 0.391-2.22 1h-1.224c0.694-1.189 1.97-2 3.444-2 1.473 0 2.75 0.811 3.443 2h-1.225c-0.548-0.609-1.335-1-2.218-1zM16 16c-3.165 0-5.842 2.112-6.705 5h-1.032c0.892-3.444 4.017-6 7.737-6 3.246 0 6.043 1.948 7.295 4.734l-0.893 0.446c-1.088-2.457-3.547-4.18-6.402-4.18zM26 28v1.5c0 0.276-0.225 0.5-0.5 0.5h-19c-0.276 0-0.5-0.224-0.5-0.5v-1.5l-4-4.5c0-0.276 0.224-0.5 0.5-0.5h27c0.275 0 0.5 0.224 0.5 0.5l-4 4.5zM7.977 11.712c-0.007-0.014-0.012-0.027-0.018-0.042-0.519-1.253-0.003-2.482 0.463-3.591 0.441-1.052 0.832-1.984 0.428-2.893-0.002-0.004-0.003-0.008-0.005-0.012-0.001-0.003-0.002-0.006-0.003-0.009-0.001-0.002-0.001-0.004-0.001-0.006-0.020-0.053-0.032-0.109-0.032-0.169 0-0.27 0.219-0.49 0.49-0.49 0.208 0 0.385 0.13 0.456 0.313 0.558 1.271 0.051 2.521-0.422 3.647-0.438 1.042-0.794 2.010-0.419 2.892 0.002 0.007 0.002 0.013 0 0.020 0.011 0.040 0.018 0.082 0.018 0.125 0 0.277-0.225 0.503-0.502 0.503-0.194 0-0.36-0.11-0.443-0.27-0.001 0-0.002 0-0.002 0-0.003-0.006-0.005-0.012-0.008-0.018zM20.154 11.566c-0.006-0.013-0.011-0.027-0.016-0.040-0.519-1.253-0.004-2.483 0.461-3.592 0.442-1.052 0.832-1.984 0.428-2.893 0-0.004-0.002-0.008-0.004-0.012s-0.002-0.006-0.004-0.009c0-0.002 0-0.004 0-0.006-0.019-0.053-0.033-0.109-0.033-0.169 0-0.27 0.22-0.49 0.49-0.49 0.209 0 0.385 0.129 0.457 0.313 0.558 1.271 0.051 2.521-0.422 3.647-0.438 1.042-0.793 2.010-0.42 2.892 0.004 0.007 0.004 0.013 0.002 0.020 0.010 0.040 0.018 0.082 0.018 0.125 0 0.277-0.227 0.503-0.504 0.503-0.193 0-0.359-0.111-0.443-0.271h-0.002c-0.002-0.006-0.004-0.012-0.008-0.018zM15.019 7.212c-0.007-0.014-0.012-0.027-0.019-0.041-0.52-1.253-0.004-2.483 0.462-3.592 0.441-1.052 0.832-1.984 0.428-2.893-0.001-0.004-0.003-0.008-0.004-0.012-0.001-0.003-0.002-0.006-0.003-0.009-0.001-0.002-0.001-0.004-0.001-0.006-0.020-0.053-0.032-0.109-0.032-0.169 0-0.27 0.22-0.49 0.49-0.49 0.209 0 0.385 0.13 0.457 0.314 0.558 1.271 0.051 2.521-0.422 3.647-0.438 1.042-0.794 2.010-0.419 2.892 0.002 0.007 0.002 0.013 0 0.020 0.011 0.040 0.018 0.082 0.018 0.125 0 0.277-0.225 0.503-0.502 0.503-0.193 0-0.359-0.111-0.443-0.271-0.001 0-0.002 0-0.002 0-0.003-0.006-0.005-0.012-0.008-0.018z"></path>
</symbol>
<symbol id="icon-bowl" viewBox="0 0 32 32">
<title>bowl</title>
<path d="M27.118 11.555c-3.482 4.643-6.552 4.803-11.274 5.043h-0.162c-5.746-0.003-9.821-2.138-9.821-2.931-0.003-0.754 3.677-2.715 8.968-2.91l0.944-2.357c-0.030 0-0.059-0.003-0.091-0.003-7.853 0-12.466 2.499-12.466 4.882v3.2c0 1.469 0.931 14.318 12.131 14.318s12.8-12.85 12.8-14.318v-3.2c0-0.626-0.322-1.259-0.934-1.853l-0.096 0.13zM28.142 3.923c-0.706-0.528-1.71-0.387-2.238 0.322l-5.773 7.694 3.738-9.341c0.33-0.819-0.070-1.75-0.891-2.082-0.813-0.328-1.754 0.069-2.080 0.894l-5.214 13.027c4.611-0.235 6.843-0.363 9.707-4.178 2.862-3.819 3.070-4.098 3.070-4.098 0.531-0.706 0.389-1.709-0.318-2.24z"></path>
</symbol>
<symbol id="icon-drink" viewBox="0 0 32 32">
<title>drink</title>
<path d="M28.061 3.822c0.63-0.872 0.739-2.622 0.739-2.622h-25.6c0 0 0.109 1.75 0.739 2.622l10.461 13.378v9.6h-3.2c-3.2 0-3.2 3.2-3.2 3.2h16c0 0 0-3.2-3.2-3.2h-3.2v-9.6l10.461-13.378zM15.040 9.2c0-1.416 1.146-2.56 2.56-2.56s2.56 1.144 2.56 2.56c0 1.413-1.146 2.56-2.56 2.56s-2.56-1.147-2.56-2.56z"></path>
</symbol>
<symbol id="icon-forkandspoon" viewBox="0 0 32 32">
<title>forkandspoon</title>
<path d="M14 0c-1.104 0-2 0.894-2 2v10h-2v-10c0-1.105-0.896-2-2-2s-2 0.894-2 2v10h-2v-10c0-1.105-0.896-2-2-2s-2 0.894-2 2v12c0 1.105 0.895 2 2 2h4v14c0 1.105 0.896 2 2 2s2-0.895 2-2v-14h4c1.104 0 2-0.895 2-2v-12c0-1.105-0.896-2-2-2zM26 0c-3.314 0-6 2.686-6 6 0 2.609 1.675 4.807 4 5.633v18.367c0 1.105 0.895 2 2 2s2-0.895 2-2v-18.367c2.325-0.826 4-3.023 4-5.633 0-3.314-2.686-6-6-6z"></path>
</symbol>
<symbol id="icon-restaurant_menu" viewBox="0 0 32 32">
<title>restaurant_menu</title>
<path d="M19.813 16.042l-1.938 1.938 9.188 9.188-1.875 1.875-9.188-9.188-9.188 9.188-1.875-1.875 13-13c-0.938-2.063-0.25-4.938 1.875-7.063 2.563-2.563 6.188-3 8.125-1.063s1.5 5.625-1.063 8.188c-2.125 2.125-5 2.75-7.063 1.813zM10.813 18.479l-5.625-5.625c-2.063-2.063-2.063-5.438 0-7.5l9.375 9.313z"></path>
</symbol>
<symbol id="icon-user" viewBox="0 0 32 32">
<title>user</title>
<path d="M12.36 3.034c-1.626 1.21-2.062 3.125-1.982 4.144 0.102 1.246 0.355 2.869 0.355 2.869s-0.501 0.272-0.501 1.366c0.174 2.747 1.093 1.562 1.282 2.766 0.454 2.902 1.493 2.386 1.493 3.97 0 2.638-1.088 3.872-4.485 5.334-3.408 1.469-6.922 3.317-6.922 6.517v1.6h28.8v-1.6c0-3.2-3.515-5.048-6.925-6.515-3.397-1.462-4.482-2.694-4.482-5.334 0-1.584 1.035-1.067 1.491-3.97 0.19-1.205 1.107-0.019 1.285-2.766 0-1.094-0.502-1.366-0.502-1.366s0.253-1.622 0.354-2.869c0.104-1.307-0.637-4.098-3.68-4.954-0.533-0.544-0.893-1.41 0.746-2.278-3.584-0.168-4.418 1.707-6.326 3.086z"></path>
</symbol>
<symbol id="icon-glass" viewBox="0 0 32 32">
<title>glass</title>
<path d="M24.305 0.527c-0.174-0.325-0.512-0.527-0.881-0.527h-14.85c-0.368 0-0.707 0.203-0.881 0.527-1.109 2.063-1.694 4.474-1.694 6.973 0 3.294 1.011 6.401 2.848 8.748 1.419 1.814 3.203 3.017 5.152 3.506v10.247h-3c-0.553 0-1 0.448-1 1s0.447 1 1 1h10c0.552 0 1-0.448 1-1s-0.448-1-1-1h-3v-10.246c1.949-0.488 3.732-1.692 5.151-3.506 1.837-2.347 2.849-5.454 2.849-8.748 0-2.498-0.586-4.91-1.695-6.973zM9.191 2h13.619c0.78 1.653 1.191 3.542 1.191 5.5 0 0.168-0.003 0.334-0.009 0.5h-15.982c-0.006-0.166-0.009-0.332-0.009-0.5 0-1.958 0.41-3.847 1.191-5.5z"></path>
</symbol>
<symbol id="icon-glass3" viewBox="0 0 32 32">
<title>glass3</title>
<path d="M27.787 5.618c0.236-0.301 0.28-0.71 0.113-1.055s-0.517-0.563-0.899-0.563h-22c-0.383 0-0.732 0.218-0.899 0.563s-0.123 0.754 0.113 1.055l9.787 12.456v11.927h-3c-0.553 0-1 0.448-1 1s0.447 1 1 1h10c0.552 0 1-0.448 1-1s-0.448-1-1-1h-3v-11.927l9.787-12.456zM24.942 6l-3.143 4h-11.6l-3.143-4h17.885z"></path>
</symbol>
<symbol id="icon-bottle2" viewBox="0 0 32 32">
<title>bottle2</title>
<path d="M18 10v-8h0.5c0.275 0 0.5-0.225 0.5-0.5v-1c0-0.275-0.225-0.5-0.5-0.5h-5c-0.275 0-0.5 0.225-0.5 0.5v1c0 0.275 0.225 0.5 0.5 0.5h0.5v8c0 3.177-4 4-4 7.017v13.983c0 0.552 0.447 1 1 1h10c0.552 0 1-0.448 1-1v-13.983c0-3.017-4-3.84-4-7.017zM20 29.491c-1.061 0.317-2.463 0.509-4 0.509s-2.938-0.192-4-0.509v-10c1.062 0.317 2.463 0.509 4 0.509s2.939-0.192 4-0.509v10z"></path>
</symbol>
<symbol id="icon-cook" viewBox="0 0 32 32">
<title>cook</title>
<path d="M24 4c-1.052 0-2.091 0.208-3.055 0.606-1.083-1.572-2.896-2.606-4.945-2.606s-3.862 1.033-4.944 2.606c-0.964-0.397-2.004-0.606-3.056-0.606-4.411 0-8 3.588-8 8 0 3.914 1.75 5.663 3.293 7.207 1.452 1.453 2.707 2.707 2.707 5.793v6c0 0.552 0.448 1 1 1h18c0.552 0 1-0.448 1-1v-6c0-3.086 1.255-4.34 2.707-5.793 1.544-1.544 3.293-3.293 3.293-7.207 0-4.411-3.589-8-8-8zM24 30h-16v-4h16v4zM27.293 17.793c-1.405 1.405-2.982 2.982-3.253 6.207h-16.081c-0.271-3.226-1.847-4.802-3.252-6.207-1.452-1.453-2.707-2.707-2.707-5.793 0-3.309 2.692-6 6-6 0.078 0 0.355 0.012 0.358 0.012 1.642 0.115 1.642 1.051 1.642 1.988v1c0 0.553 0.447 1 1 1s1-0.447 1-1v-1c0-2.205 1.794-4 4-4s4 1.795 4 4v1c0 0.553 0.448 1 1 1s1-0.447 1-1v-1c0-0.936 0-1.873 1.642-1.988 0.003-0 0.279-0.012 0.358-0.012 3.308 0 6 2.692 6 6 0 3.086-1.255 4.34-2.707 5.793z"></path>
</symbol>
<symbol id="icon-icecream" viewBox="0 0 32 32">
<title>icecream</title>
<path d="M26 13c0-2.722-1.584-5.182-4.008-6.329-0.172-3.708-3.242-6.671-6.992-6.671s-6.82 2.964-6.992 6.673c-2.367 1.124-4.008 3.538-4.008 6.327 0 2.893 1.763 5.38 4.272 6.446l5.829 11.991c0.168 0.345 0.517 0.563 0.899 0.563s0.732-0.218 0.899-0.563l5.829-11.991c2.508-1.066 4.271-3.554 4.271-6.446zM19 18h-8c-2.757 0-5-2.243-5-5s2.243-5 5-5c0.572 0 1.133 0.095 1.667 0.284 0.521 0.184 1.092-0.089 1.276-0.609s-0.089-1.092-0.61-1.276c-0.748-0.264-1.534-0.399-2.333-0.399-0.309 0-0.612 0.020-0.91 0.059 0.441-2.308 2.474-4.059 4.91-4.059 2.757 0 5 2.243 5 5 0 1.233-0.452 2.416-1.273 3.333-0.369 0.412-0.334 1.043 0.078 1.412 0.191 0.171 0.429 0.255 0.666 0.255 0.274 0 0.548-0.113 0.745-0.333 0.735-0.82 1.258-1.793 1.54-2.838 1.376 0.912 2.243 2.47 2.243 4.171 0 2.757-2.243 5-5 5z"></path>
</symbol>
<symbol id="icon-coffee2" viewBox="0 0 32 32">
<title>coffee2</title>
<path d="M27 4h-1.382l-1.724-3.447c-0.169-0.339-0.515-0.553-0.895-0.553h-14c-0.379 0-0.725 0.214-0.895 0.553l-1.723 3.447h-1.382c-0.552 0-1 0.448-1 1v6c0 0.553 0.448 1 1 1h1c0 0.034 0.002 0.069 0.005 0.104l2 19c0.053 0.509 0.483 0.895 0.995 0.895h14c0.512 0 0.941-0.387 0.994-0.895l2-19c0.004-0.035 0.006-0.070 0.006-0.104h1c0.552 0 1-0.447 1-1v-6c0-0.552-0.448-1-1-1zM9.618 2h12.764l1 2h-14.764l1-2zM9.9 30l-0.632-6h13.462l-0.631 6h-12.2zM14 20c0-1.105 0.896-2 2-2s2 0.895 2 2-0.895 2-2 2c-1.104 0-2-0.895-2-2zM23.573 16h-15.147l-0.421-4h15.989l-0.421 4zM26 10h-20v-4h18.994c0.002 0 0.004 0 0.006 0 0.001 0 0.003 0 0.004 0h0.995v4z"></path>
</symbol>
<symbol id="icon-teapot" viewBox="0 0 38 32">
<title>teapot</title>
<path d="M32.5 12c-1.526 0-2.91 0.626-3.907 1.633-2.181-2.24-5.227-3.633-8.593-3.633-3.003 0-5.886 1.126-8.12 3.171-1.517 1.389-2.639 3.113-3.289 5.010-0.052-0.058-0.106-0.116-0.162-0.174-1.292-1.332-3.119-2.007-5.431-2.007h-2c-0.552 0-1 0.448-1 1v1c0 0.552 0.448 1 1 1 1.469 0 2.596 0.567 3.546 1.783 0.906 1.16 1.513 2.715 2.099 4.22 0.471 1.209 0.917 2.35 1.503 3.238 0.77 1.167 1.729 1.759 2.853 1.759h18c0.265 0 0.52-0.105 0.707-0.293 1.111-1.11 1.682-2.509 1.977-3.872 1.255-0.331 2.599-1.145 3.715-2.286 1.676-1.712 2.6-3.861 2.6-6.050 0-3.033-2.467-5.5-5.5-5.5zM33.257 21.451c-0.41 0.419-0.845 0.755-1.258 1.006 0.001-0.16 0.001-0.314 0.001-0.456 0-2.148-0.568-4.166-1.561-5.913 0.451-0.656 1.206-1.088 2.061-1.088 1.379 0 2.5 1.121 2.5 2.5 0 1.888-1.092 3.285-1.743 3.95zM22 8c0 1.104-0.895 2-2 2s-2-0.896-2-2c0-1.104 0.895-2 2-2s2 0.896 2 2z"></path>
</symbol>
<symbol id="icon-fork-knife" viewBox="0 0 32 32">
<title>fork-knife</title>
<path d="M13 0c-0.553 0-1 0.448-1 1v9c0 0.593-0.101 0.986-0.301 1.169-0.188 0.172-0.554 0.264-0.942 0.361-0.227 0.057-0.489 0.122-0.758 0.22v-10.749c0-0.552-0.447-1-1-1s-1 0.448-1 1v10.749c-0.269-0.097-0.53-0.162-0.758-0.219-0.388-0.097-0.754-0.188-0.942-0.361-0.2-0.183-0.3-0.576-0.3-1.169v-9c0-0.552-0.448-1-1-1s-1 0.448-1 1v9c0 2.78 1.726 3.213 2.758 3.47 0.388 0.097 0.754 0.188 0.942 0.361 0.2 0.183 0.3 0.576 0.3 1.169v5.171c-1.165 0.412-2 1.523-2 2.828v6c0 1.657 1.343 3 3 3s3-1.343 3-3v-6c0-1.306-0.835-2.416-2-2.828v-5.171c0-0.593 0.101-0.986 0.301-1.169 0.188-0.172 0.554-0.264 0.942-0.361 1.031-0.258 2.758-0.69 2.758-3.47v-9c0-0.552-0.447-1-1-1zM26 20.172v-19.172c0-0.552-0.448-1-1-1-2.156 0-3.534 1.44-4.31 2.647-0.812 1.263-1.457 2.994-1.918 5.144-0.764 3.563-0.772 7.063-0.772 7.21 0 0.553 0.448 1 1 1h5v4.171c-1.165 0.412-2 1.523-2 2.828v6c0 1.657 1.343 3 3 3s3-1.343 3-3v-6c0-1.306-0.835-2.416-2-2.828zM20.733 8.184c0.517-2.404 1.49-5.2 3.267-5.976v11.792h-3.972c0.055-1.267 0.219-3.557 0.706-5.816z"></path>
</symbol>
<symbol id="icon-spoon-knife" viewBox="0 0 32 32">
<title>spoon-knife</title>
<path d="M7 0c-3.314 0-6 3.134-6 7 0 3.31 1.97 6.084 4.616 6.813l-0.994 16.192c-0.067 1.098 0.777 1.996 1.878 1.996h1c1.1 0 1.945-0.898 1.877-1.996l-0.993-16.192c2.646-0.729 4.616-3.502 4.616-6.813 0-3.866-2.686-7-6-7zM27.166 0l-1.666 10h-1.25l-0.834-10h-0.834l-0.834 10h-1.25l-1.666-10h-0.834v13c0 0.553 0.448 1 1 1h2.605l-0.982 16.004c-0.067 1.098 0.777 1.996 1.878 1.996h1c1.1 0 1.945-0.898 1.878-1.996l-0.982-16.004h2.605c0.552 0 1-0.447 1-1v-13h-0.834z"></path>
</symbol>
<symbol id="icon-cook2" viewBox="0 0 32 32">
<title>cook2</title>
<path d="M24 4c-1.052 0-2.091 0.208-3.055 0.606-1.083-1.572-2.896-2.606-4.945-2.606s-3.862 1.033-4.944 2.606c-0.964-0.397-2.004-0.606-3.056-0.606-4.411 0-8 3.588-8 8 0 3.914 1.75 5.663 3.293 7.207 1.452 1.453 2.707 2.707 2.707 5.793v6c0 0.552 0.448 1 1 1h18c0.552 0 1-0.448 1-1v-6c0-3.086 1.255-4.34 2.707-5.793 1.544-1.544 3.293-3.293 3.293-7.207 0-4.411-3.589-8-8-8zM24 30h-16v-4h16v4zM27.293 17.793c-1.405 1.405-2.982 2.982-3.253 6.207h-16.081c-0.271-3.226-1.847-4.802-3.252-6.207-1.452-1.453-2.707-2.707-2.707-5.793 0-3.309 2.692-6 6-6 0.078 0 0.355 0.012 0.358 0.012 1.642 0.115 1.642 1.051 1.642 1.988v1c0 0.553 0.447 1 1 1s1-0.447 1-1v-1c0-2.205 1.794-4 4-4s4 1.795 4 4v1c0 0.553 0.448 1 1 1s1-0.447 1-1v-1c0-0.936 0-1.873 1.642-1.988 0.003-0 0.279-0.012 0.358-0.012 3.308 0 6 2.692 6 6 0 3.086-1.255 4.34-2.707 5.793z"></path>
</symbol>
<symbol id="icon-plate" viewBox="0 0 32 32">
<title>plate</title>
<path d="M1.034 26h29.932c0.552 0 1-0.448 1-1v-2c0-0.022-0.001-0.044-0.002-0.066-0.267-4.047-2.045-7.809-5.008-10.595-2.487-2.338-5.611-3.797-8.956-4.215v-2.125h1c0.552 0 1-0.448 1-1s-0.448-1-1-1h-6c-0.553 0-1 0.448-1 1s0.447 1 1 1h1v2.125c-3.344 0.418-6.469 1.877-8.956 4.215-2.963 2.785-4.742 6.548-5.008 10.595-0.002 0.022-0.002 0.044-0.002 0.066v2c0 0.552 0.448 1 1 1zM31 28h-30c-0.552 0-1 0.448-1 1s0.448 1 1 1h30c0.552 0 1-0.448 1-1s-0.448-1-1-1z"></path>
</symbol>
<symbol id="icon-steak" viewBox="0 0 32 32">
<title>steak</title>
<path d="M32 14c0-5.514-4.486-10-10-10-1.913 0-3.791 0.526-5.43 1.521-1.643 0.998-2.931 2.396-3.726 4.045-0.713 1.479-2.614 2.434-4.845 2.434h-2c-3.308 0-6 2.691-6 6v2c0 2.983 1.738 5.625 4.895 7.438 2.876 1.652 6.819 2.562 11.105 2.562 4.35 0 8.343-1.325 11.245-3.73 1.5-1.243 2.67-2.735 3.48-4.433 0.846-1.777 1.276-3.741 1.276-5.836 0-0.303-0.015-0.604-0.041-0.9 0.027-0.363 0.041-0.729 0.041-1.1zM25.968 22.73c-2.544 2.108-6.084 3.27-9.969 3.27-3.941 0-7.531-0.816-10.108-2.296-1.776-1.020-3.892-2.837-3.892-5.704 0-2.206 1.794-4 4-4h2c1.379 0 2.708-0.295 3.844-0.852 1.28-0.629 2.249-1.567 2.802-2.713 1.278-2.652 4.234-4.434 7.354-4.434 4.411 0 8 3.589 8 8 0 3.525-1.394 6.544-4.032 8.73zM22 8.25c-2.239 0-4.43 1.3-5.327 3.161-0.774 1.604-2.101 2.903-3.838 3.756-1.443 0.708-3.114 1.083-4.835 1.083h-2c-0.965 0-1.75 0.785-1.75 1.75 0 1.437 0.929 2.7 2.763 3.753 2.241 1.288 5.433 1.997 8.988 1.997 3.361 0 6.392-0.977 8.533-2.752 2.135-1.77 3.218-4.124 3.218-6.998 0-3.171-2.579-5.75-5.75-5.75zM22 16c-1.105 0-2-0.896-2-2s0.895-2 2-2 2 0.896 2 2-0.895 2-2 2z"></path>
</symbol>
<symbol id="icon-fish" viewBox="0 0 32 32">
<title>fish</title>
<path d="M31.855 14.479c-1.563-2.561-3.616-4.686-5.939-6.147-2.426-1.526-5.162-2.332-7.914-2.332-3.946 0-7.738 1.628-10.79 4.609-1.734-2.047-3.724-3.601-5.806-4.523-0.386-0.171-0.837-0.081-1.129 0.224s-0.359 0.761-0.171 1.138l3.777 7.553-3.777 7.553c-0.189 0.378-0.12 0.832 0.171 1.137 0.193 0.202 0.456 0.31 0.724 0.31 0.137 0 0.274-0.028 0.405-0.085 2.083-0.922 4.073-2.475 5.806-4.523 3.052 2.98 6.844 4.608 10.79 4.608 2.752 0 5.488-0.806 7.914-2.332 2.322-1.46 4.377-3.586 5.939-6.147 0.195-0.32 0.195-0.722 0-1.042zM26 16c-1.105 0-2-0.896-2-2s0.895-2 2-2 2 0.896 2 2-0.895 2-2 2z"></path>
</symbol>
<symbol id="icon-chicken" viewBox="0 0 32 32">
<title>chicken</title>
<path d="M30 24c-5 0-7.5-4.5-7.5-4.5-2 0-3 1-3 3 0 0 4.5 2.5 4.5 7.5 0 1.105 0.895 2 2 2s2-0.895 2-2v-1c0-0.552 0.448-1 1-1h1c1.105 0 2-0.895 2-2s-0.895-2-2-2zM18 21c0-1.657 1.343-3 3-3 0.341 0 0.669 0.058 0.975 0.163 0.288-0.997 0.301-2.093-0.029-2.972l-0.893-2.382c-0.579-1.545-1.442-4.102-1.916-5.683 0 0-2.138-7.127-10.138-7.127-4.971 0-9 4.029-9 9 0 8 7.127 10.138 7.127 10.138 1.581 0.474 2.873 0.862 2.873 0.862s1.264 0.474 2.809 1.053l2.382 0.893c0.879 0.329 1.975 0.316 2.972 0.029-0.105-0.305-0.163-0.634-0.163-0.975z"></path>
</symbol>
<symbol id="icon-hamburger" viewBox="0 0 32 32">
<title>hamburger</title>
<path d="M16 30c8.837 0 16-2.686 16-6h-32c0 3.314 7.163 6 16 6zM29 12h-26c-1.65 0-3 1.35-3 3s1.35 3 3 3h26c1.65 0 3-1.35 3-3s-1.35-3-3-3zM16 2c-8.836 0-16 3.311-16 6.625v1.375h32v-1.375c0-3.314-7.163-6.625-16-6.625zM5 8c-0.552 0-1-0.448-1-1s0.448-1 1-1 1 0.448 1 1-0.448 1-1 1zM9 6c-0.553 0-1-0.448-1-1s0.447-1 1-1 1 0.448 1 1-0.447 1-1 1zM13 8c-0.553 0-1-0.448-1-1s0.447-1 1-1 1 0.448 1 1-0.447 1-1 1zM19 8c-0.552 0-1-0.448-1-1s0.448-1 1-1 1 0.448 1 1-0.448 1-1 1zM23 6c-0.552 0-1-0.448-1-1s0.448-1 1-1 1 0.448 1 1-0.448 1-1 1zM27 8c-0.552 0-1-0.448-1-1s0.448-1 1-1 1 0.448 1 1-0.448 1-1 1zM0 20h32v2h-32z"></path>
</symbol>
<symbol id="icon-pizza" viewBox="0 0 32 32">
<title>pizza</title>
<path d="M31.251 11.208l-29.692-11.134c-0.423-0.159-0.901-0.056-1.222 0.265s-0.423 0.798-0.265 1.222l11.134 29.692c0.169 0.452 0.601 0.749 1.081 0.749 0.015 0 0.031-0.001 0.046-0.001 5.157-0.206 10.012-2.335 13.671-5.994s5.788-8.514 5.994-13.671c0.020-0.498-0.282-0.952-0.748-1.127zM7.902 15.861c1.216-0.383 2.098-1.518 2.098-2.861 0-1.657-1.343-3-3-3-0.428 0-0.833 0.090-1.202 0.251l-2.671-7.124 24.713 9.268c-1.067 8.026-7.421 14.379-15.446 15.445l-4.492-11.979zM20 20c0 2.209-1.791 4-4 4s-4-1.791-4-4c0-2.209 1.791-4 4-4s4 1.791 4 4zM18 12c0 1.104-0.895 2-2 2s-2-0.896-2-2c0-1.104 0.896-2 2-2s2 0.896 2 2z"></path>
</symbol>
<symbol id="icon-facebook2" viewBox="0 0 32 32">
<title>facebook2</title>
<path d="M26.667 0h-21.334c-2.945 0-5.333 2.388-5.333 5.334v21.332c0 2.946 2.387 5.334 5.333 5.334h10.667v-14h-4v-4h4v-3c0-2.761 2.239-5 5-5h5v4h-5c-0.552 0-1 0.448-1 1v3h5.5l-1 4h-4.5v14h6.667c2.945 0 5.333-2.388 5.333-5.334v-21.332c0-2.946-2.387-5.334-5.333-5.334z"></path>
</symbol>
<symbol id="icon-twitter2" viewBox="0 0 32 32">
<title>twitter2</title>
<path d="M26.667 0h-21.333c-2.934 0-5.334 2.4-5.334 5.334v21.332c0 2.936 2.4 5.334 5.334 5.334h21.333c2.934 0 5.333-2.398 5.333-5.334v-21.332c0-2.934-2.399-5.334-5.333-5.334zM23.952 11.921c0.008 0.176 0.012 0.353 0.012 0.531 0 5.422-4.127 11.675-11.675 11.675-2.317 0-4.474-0.679-6.29-1.844 0.321 0.038 0.648 0.058 0.979 0.058 1.922 0 3.692-0.656 5.096-1.757-1.796-0.033-3.311-1.219-3.833-2.849 0.251 0.048 0.508 0.074 0.772 0.074 0.374 0 0.737-0.050 1.081-0.144-1.877-0.377-3.291-2.035-3.291-4.023 0-0.017 0-0.034 0-0.052 0.553 0.307 1.186 0.492 1.858 0.513-1.101-0.736-1.825-1.992-1.825-3.415 0-0.752 0.202-1.457 0.556-2.063 2.024 2.482 5.047 4.116 8.457 4.287-0.070-0.3-0.106-0.614-0.106-0.935 0-2.266 1.837-4.103 4.103-4.103 1.18 0 2.247 0.498 2.995 1.296 0.935-0.184 1.813-0.525 2.606-0.996-0.306 0.958-0.957 1.762-1.804 2.27 0.83-0.099 1.621-0.32 2.357-0.646-0.55 0.823-1.245 1.545-2.047 2.124z"></path>
</symbol>
<symbol id="icon-arrow-left" viewBox="0 0 27 32">
<title>arrow-left</title>
<path d="M27.429 16.286v2.286q0 0.946-0.58 1.616t-1.509 0.67h-12.571l5.232 5.25q0.679 0.643 0.679 1.607t-0.679 1.607l-1.339 1.357q-0.661 0.661-1.607 0.661-0.929 0-1.625-0.661l-11.625-11.643q-0.661-0.661-0.661-1.607 0-0.929 0.661-1.625l11.625-11.607q0.679-0.679 1.625-0.679 0.929 0 1.607 0.679l1.339 1.321q0.679 0.679 0.679 1.625t-0.679 1.625l-5.232 5.232h12.571q0.929 0 1.509 0.67t0.58 1.616z"></path>
</symbol>
<symbol id="icon-arrow-right" viewBox="0 0 27 32">
<title>arrow-right</title>
<path d="M26.286 17.429q0 0.964-0.661 1.625l-11.625 11.625q-0.696 0.661-1.625 0.661-0.911 0-1.607-0.661l-1.339-1.339q-0.679-0.679-0.679-1.625t0.679-1.625l5.232-5.232h-12.571q-0.929 0-1.509-0.67t-0.58-1.616v-2.286q0-0.946 0.58-1.616t1.509-0.67h12.571l-5.232-5.25q-0.679-0.643-0.679-1.607t0.679-1.607l1.339-1.339q0.679-0.679 1.607-0.679 0.946 0 1.625 0.679l11.625 11.625q0.661 0.625 0.661 1.607z"></path>
</symbol>
<symbol id="icon-arrow-up" viewBox="0 0 30 32">
<title>arrow-up</title>
<path d="M28.768 17.625q0 0.911-0.661 1.607l-1.339 1.339q-0.679 0.679-1.625 0.679-0.964 0-1.607-0.679l-5.25-5.232v12.571q0 0.929-0.67 1.509t-1.616 0.58h-2.286q-0.946 0-1.616-0.58t-0.67-1.509v-12.571l-5.25 5.232q-0.643 0.679-1.607 0.679t-1.607-0.679l-1.339-1.339q-0.679-0.679-0.679-1.607 0-0.946 0.679-1.625l11.625-11.625q0.625-0.661 1.607-0.661 0.964 0 1.625 0.661l11.625 11.625q0.661 0.696 0.661 1.625z"></path>
</symbol>
<symbol id="icon-arrow-down" viewBox="0 0 30 32">
<title>arrow-down</title>
<path d="M28.768 15.143q0 0.946-0.661 1.607l-11.625 11.643q-0.696 0.661-1.625 0.661-0.946 0-1.607-0.661l-11.625-11.643q-0.679-0.643-0.679-1.607 0-0.946 0.679-1.625l1.321-1.339q0.696-0.661 1.625-0.661 0.946 0 1.607 0.661l5.25 5.25v-12.571q0-0.929 0.679-1.607t1.607-0.679h2.286q0.929 0 1.607 0.679t0.679 1.607v12.571l5.25-5.25q0.661-0.661 1.607-0.661 0.929 0 1.625 0.661l1.339 1.339q0.661 0.696 0.661 1.625z"></path>
</symbol>
<symbol id="icon-coffee" viewBox="0 0 34 32">
<title>coffee</title>
<path d="M29.714 11.714q0-1.429-1-2.429t-2.429-1h-1.143v6.857h1.143q1.429 0 2.429-1t1-2.429zM0 25.429h32q0 1.893-1.339 3.232t-3.232 1.339h-22.857q-1.893 0-3.232-1.339t-1.339-3.232zM33.143 11.714q0 2.839-2.009 4.848t-4.848 2.009h-1.143v0.571q0 1.643-1.179 2.821t-2.821 1.179h-12.571q-1.643 0-2.821-1.179t-1.179-2.821v-13.143q0-0.464 0.339-0.804t0.804-0.339h20.571q2.839 0 4.848 2.009t2.009 4.848z"></path>
</symbol>
<symbol id="icon-cutlery" viewBox="0 0 25 32">
<title>cutlery</title>
<path d="M11.429 1.429v11.429q0 1.089-0.634 1.982t-1.652 1.25v13.911q0 0.929-0.679 1.607t-1.607 0.679h-2.286q-0.929 0-1.607-0.679t-0.679-1.607v-13.911q-1.018-0.357-1.652-1.25t-0.634-1.982v-11.429q0-0.464 0.339-0.804t0.804-0.339 0.804 0.339 0.339 0.804v7.429q0 0.464 0.339 0.804t0.804 0.339 0.804-0.339 0.339-0.804v-7.429q0-0.464 0.339-0.804t0.804-0.339 0.804 0.339 0.339 0.804v7.429q0 0.464 0.339 0.804t0.804 0.339 0.804-0.339 0.339-0.804v-7.429q0-0.464 0.339-0.804t0.804-0.339 0.804 0.339 0.339 0.804zM25.143 1.429v28.571q0 0.929-0.679 1.607t-1.607 0.679h-2.286q-0.929 0-1.607-0.679t-0.679-1.607v-9.143h-4q-0.232 0-0.402-0.17t-0.17-0.402v-14.286q0-2.357 1.679-4.036t4.036-1.679h4.571q0.464 0 0.804 0.339t0.339 0.804z"></path>
</symbol>
<symbol id="icon-vimeo-square" viewBox="0 0 27 32">
<title>vimeo-square</title>
<path d="M23.071 11.679q0.179-3.857-2.875-3.964-4.125-0.143-5.571 4.661 0.786-0.339 1.464-0.339 1.518 0 1.321 1.714-0.071 1.018-1.321 2.982t-1.875 1.964q-0.768 0-1.464-3.018-0.232-0.964-0.804-4.554-0.536-3.375-2.857-3.161-1.054 0.125-2.929 1.786l-2.893 2.571 0.929 1.196q1.357-0.929 1.554-0.929 1.018 0 1.911 3.196 0.268 0.982 0.804 2.938t0.804 2.938q1.214 3.196 2.929 3.196 2.804 0 6.839-5.25 3.929-5.054 4.036-7.929zM27.429 7.714v17.143q0 2.125-1.509 3.634t-3.634 1.509h-17.143q-2.125 0-3.634-1.509t-1.509-3.634v-17.143q0-2.125 1.509-3.634t3.634-1.509h17.143q2.125 0 3.634 1.509t1.509 3.634z"></path>
</symbol>
<symbol id="icon-tripadvisor" viewBox="0 0 41 32">
<title>tripadvisor</title>
<path d="M11.625 18.089q0 0.696-0.491 1.188t-1.17 0.491q-0.696 0-1.188-0.491t-0.491-1.188q0-0.679 0.491-1.17t1.188-0.491q0.679 0 1.17 0.491t0.491 1.17zM32.232 18.071q0 0.696-0.491 1.188t-1.188 0.491-1.188-0.491-0.491-1.188 0.491-1.179 1.188-0.482 1.188 0.482 0.491 1.179zM13.661 18.089q0-1.411-1.009-2.429t-2.438-1.018-2.438 1.009-1.009 2.437 1.009 2.438 2.438 1.009 2.438-1.009 1.009-2.438zM34.25 18.071q0-1.429-1.009-2.438t-2.438-1.009q-1.411 0-2.429 1.009t-1.018 2.438 1.009 2.438 2.438 1.009 2.438-1.009 1.009-2.438zM15.179 18.089q0 2.071-1.455 3.527t-3.509 1.455q-2.071 0-3.527-1.464t-1.455-3.518 1.464-3.509 3.518-1.455 3.509 1.455 1.455 3.509zM35.786 18.071q0 2.054-1.455 3.509t-3.527 1.455q-2.054 0-3.509-1.455t-1.455-3.509 1.455-3.509 3.509-1.455q2.071 0 3.527 1.455t1.455 3.509zM18.571 18.125q0-3.411-2.42-5.83t-5.83-2.42q-2.232 0-4.125 1.107t-3 3.009-1.107 4.134 1.107 4.134 3 3.009 4.125 1.107q3.411 0 5.83-2.42t2.42-5.83zM30.5 7.893q-4.536-1.982-9.929-1.982-5.696 0-10.232 1.964 2.089 0 3.982 0.813t3.259 2.188 2.179 3.268 0.813 3.982q0-2.054 0.777-3.92t2.107-3.223 3.17-2.196 3.875-0.893zM39.054 18.125q0-3.411-2.411-5.83t-5.821-2.42-5.83 2.42-2.42 5.83 2.42 5.83 5.83 2.42 5.821-2.42 2.411-5.83zM34.304 8.018h6.839q-0.786 0.911-1.339 2.045t-0.714 2.045q1.964 2.696 1.964 6.018 0 2.786-1.375 5.143t-3.732 3.723-5.125 1.366q-2.375 0-4.446-1t-3.5-2.768q-0.839 1-2.304 3.196-0.196-0.393-0.955-1.473t-1.33-1.741q-1.429 1.768-3.509 2.777t-4.455 1.009q-2.768 0-5.125-1.366t-3.732-3.723-1.375-5.143q0-3.321 1.964-6.018-0.161-0.911-0.714-2.045t-1.339-2.045h6.518q2.661-1.786 6.339-2.795t7.714-1.009q4 0 7.518 1t6.214 2.804z"></path>
</symbol>
</defs>
</svg>
