<!-- Generated by IcoMoon.io -->
<svg version="1.1" xmlns="http://www.w3.org/2000/svg" width="38" height="32" viewBox="0 0 38 32">
<title>teapot</title>
<path d="M32.5 12c-1.526 0-2.91 0.626-3.907 1.633-2.181-2.24-5.227-3.633-8.593-3.633-3.003 0-5.886 1.126-8.12 3.171-1.517 1.389-2.639 3.113-3.289 5.010-0.052-0.058-0.106-0.116-0.162-0.174-1.292-1.332-3.119-2.007-5.431-2.007h-2c-0.552 0-1 0.448-1 1v1c0 0.552 0.448 1 1 1 1.469 0 2.596 0.567 3.546 1.783 0.906 1.16 1.513 2.715 2.099 4.22 0.471 1.209 0.917 2.35 1.503 3.238 0.77 1.167 1.729 1.759 2.853 1.759h18c0.265 0 0.52-0.105 0.707-0.293 1.111-1.11 1.682-2.509 1.977-3.872 1.255-0.331 2.599-1.145 3.715-2.286 1.676-1.712 2.6-3.861 2.6-6.050 0-3.033-2.467-5.5-5.5-5.5zM33.257 21.451c-0.41 0.419-0.845 0.755-1.258 1.006 0.001-0.16 0.001-0.314 0.001-0.456 0-2.148-0.568-4.166-1.561-5.913 0.451-0.656 1.206-1.088 2.061-1.088 1.379 0 2.5 1.121 2.5 2.5 0 1.888-1.092 3.285-1.743 3.95zM22 8c0 1.104-0.895 2-2 2s-2-0.896-2-2c0-1.104 0.895-2 2-2s2 0.896 2 2z"></path>
</svg>
